<svg id="Laag_1" data-name="Laag 1" xmlns="http://www.w3.org/2000/svg" viewBox="0 0 100 300"><title>rocket</title><polygon points="68.06 237.24 85.75 264.57 64.24 247.69 79.81 282.74 57.38 255.04 60.24 293.25 46.71 260.99 34.85 285.9 38.77 248.67 24.58 263.78 34.85 237.9 34.85 224.67 64.24 224.67 68.06 237.24" style="fill:#f15a24"/><polygon points="62.6 236.97 76 253.25 60 244.09 70.6 267.93 55.33 249.09 56 275.08 46.07 252.13 40 270.08 41.67 242.75 31.33 253.75 40 237.42 40 228.42 60 228.42 62.6 236.97" style="fill:#f7931e"/><polyline points="40 198.25 30 239.25 50 233.09 50 215.25" style="fill:#fff;stroke:#000;stroke-miterlimit:10"/><polyline points="60 198.25 70 239.25 50 233.09 50 215.25" style="fill:#fff;stroke:#000;stroke-miterlimit:10"/><path d="M72.5,67.37v95.38h-45V67.37A22.21,22.21,0,0,1,29,59.31L48.15,10a2,2,0,0,1,3.7,0L71,59.31A22.21,22.21,0,0,1,72.5,67.37Z" style="fill:#fff;stroke:#000;stroke-miterlimit:10"/><polygon points="28 162.25 1 239.25 50 215.25 50 162.25 28 162.25" style="fill:#fff;stroke:#000;stroke-miterlimit:10"/><polygon points="72 162.25 99 239.25 50 215.25 50 162.25 72 162.25" style="fill:#fff;stroke:#000;stroke-miterlimit:10"/></svg>